<mxfile host="app.diagrams.net" modified="2024-01-23T19:20:24.934Z" agent="Mozilla/5.0 (Windows NT 10.0; Win64; x64; rv:121.0) Gecko/20100101 Firefox/121.0" etag="WcbUt43QSEr_hmUlbzGL" version="22.1.22" type="device">
  <diagram name="Page-1" id="YvsTHPCTIXLpTZI9YfE7">
    <mxGraphModel dx="1615" dy="871" grid="1" gridSize="10" guides="1" tooltips="1" connect="1" arrows="1" fold="1" page="1" pageScale="1" pageWidth="850" pageHeight="1100" math="0" shadow="0">
      <root>
        <mxCell id="0" />
        <mxCell id="1" parent="0" />
        <mxCell id="humndak8_3n1T79xHsqS-7" value="" style="endArrow=none;html=1;rounded=0;entryX=0.67;entryY=1;entryDx=0;entryDy=0;exitX=0.358;exitY=0;exitDx=0;exitDy=0;exitPerimeter=0;entryPerimeter=0;" parent="1" target="humndak8_3n1T79xHsqS-28" edge="1" source="humndak8_3n1T79xHsqS-33">
          <mxGeometry width="50" height="50" relative="1" as="geometry">
            <mxPoint x="259.03999999999996" y="320" as="sourcePoint" />
            <mxPoint x="170" y="275" as="targetPoint" />
          </mxGeometry>
        </mxCell>
        <mxCell id="humndak8_3n1T79xHsqS-18" value="" style="endArrow=none;html=1;rounded=0;exitX=0.75;exitY=0;exitDx=0;exitDy=0;entryX=0.5;entryY=1;entryDx=0;entryDy=0;" parent="1" target="humndak8_3n1T79xHsqS-27" edge="1">
          <mxGeometry width="50" height="50" relative="1" as="geometry">
            <mxPoint x="360" y="320" as="sourcePoint" />
            <mxPoint x="404" y="237.5" as="targetPoint" />
          </mxGeometry>
        </mxCell>
        <mxCell id="humndak8_3n1T79xHsqS-27" value="&lt;font style=&quot;font-size: 18px;&quot;&gt;Ward_id&lt;/font&gt;" style="ellipse;whiteSpace=wrap;html=1;align=center;fontStyle=4;" parent="1" vertex="1">
          <mxGeometry x="340" y="200" width="135" height="40" as="geometry" />
        </mxCell>
        <mxCell id="humndak8_3n1T79xHsqS-28" value="&lt;font style=&quot;font-size: 18px;&quot;&gt;Name&lt;/font&gt;" style="ellipse;whiteSpace=wrap;html=1;align=center;" parent="1" vertex="1">
          <mxGeometry x="200" y="200" width="100" height="40" as="geometry" />
        </mxCell>
        <mxCell id="humndak8_3n1T79xHsqS-33" value="&lt;b&gt;&lt;font style=&quot;font-size: 20px;&quot;&gt;Ward&lt;/font&gt;&lt;/b&gt;" style="whiteSpace=wrap;html=1;align=center;" parent="1" vertex="1">
          <mxGeometry x="230" y="320" width="190" height="50" as="geometry" />
        </mxCell>
        <mxCell id="humndak8_3n1T79xHsqS-34" value="" style="endArrow=none;html=1;rounded=0;entryX=0.67;entryY=1;entryDx=0;entryDy=0;exitX=0.3;exitY=0;exitDx=0;exitDy=0;entryPerimeter=0;exitPerimeter=0;" parent="1" target="humndak8_3n1T79xHsqS-40" edge="1" source="humndak8_3n1T79xHsqS-44">
          <mxGeometry width="50" height="50" relative="1" as="geometry">
            <mxPoint x="1129.04" y="320" as="sourcePoint" />
            <mxPoint x="1040" y="275" as="targetPoint" />
          </mxGeometry>
        </mxCell>
        <mxCell id="humndak8_3n1T79xHsqS-37" value="" style="endArrow=none;html=1;rounded=0;exitX=0.75;exitY=0;exitDx=0;exitDy=0;entryX=0.4;entryY=1.025;entryDx=0;entryDy=0;entryPerimeter=0;" parent="1" target="humndak8_3n1T79xHsqS-39" edge="1">
          <mxGeometry width="50" height="50" relative="1" as="geometry">
            <mxPoint x="1230" y="320" as="sourcePoint" />
            <mxPoint x="1274" y="237.5" as="targetPoint" />
          </mxGeometry>
        </mxCell>
        <mxCell id="humndak8_3n1T79xHsqS-39" value="&lt;font style=&quot;font-size: 18px;&quot;&gt;Patient_id&lt;/font&gt;" style="ellipse;whiteSpace=wrap;html=1;align=center;fontStyle=4;" parent="1" vertex="1">
          <mxGeometry x="1230" y="200" width="120" height="40" as="geometry" />
        </mxCell>
        <mxCell id="humndak8_3n1T79xHsqS-40" value="&lt;font style=&quot;font-size: 18px;&quot;&gt;Name&lt;/font&gt;" style="ellipse;whiteSpace=wrap;html=1;align=center;" parent="1" vertex="1">
          <mxGeometry x="1040" y="200" width="100" height="40" as="geometry" />
        </mxCell>
        <mxCell id="humndak8_3n1T79xHsqS-44" value="&lt;b&gt;&lt;font style=&quot;font-size: 20px;&quot;&gt;Patient&lt;/font&gt;&lt;/b&gt;" style="whiteSpace=wrap;html=1;align=center;" parent="1" vertex="1">
          <mxGeometry x="1100" y="320" width="190" height="50" as="geometry" />
        </mxCell>
        <mxCell id="humndak8_3n1T79xHsqS-47" value="&lt;font style=&quot;font-size: 18px;&quot;&gt;DateOfBirth&lt;/font&gt;" style="ellipse;whiteSpace=wrap;html=1;align=center;" parent="1" vertex="1">
          <mxGeometry x="1098.75" y="160" width="170" height="40" as="geometry" />
        </mxCell>
        <mxCell id="humndak8_3n1T79xHsqS-48" value="" style="endArrow=none;html=1;rounded=0;exitX=0.5;exitY=0;exitDx=0;exitDy=0;entryX=0.5;entryY=1;entryDx=0;entryDy=0;" parent="1" source="humndak8_3n1T79xHsqS-44" target="humndak8_3n1T79xHsqS-47" edge="1">
          <mxGeometry relative="1" as="geometry">
            <mxPoint x="1170" y="240" as="sourcePoint" />
            <mxPoint x="1330" y="240" as="targetPoint" />
          </mxGeometry>
        </mxCell>
        <mxCell id="humndak8_3n1T79xHsqS-56" value="&lt;b&gt;&lt;font style=&quot;font-size: 18px;&quot;&gt;Host&lt;/font&gt;&lt;/b&gt;" style="shape=rhombus;perimeter=rhombusPerimeter;whiteSpace=wrap;html=1;align=center;" parent="1" vertex="1">
          <mxGeometry x="670" y="315" width="120" height="60" as="geometry" />
        </mxCell>
        <mxCell id="humndak8_3n1T79xHsqS-57" value="" style="shape=link;html=1;rounded=0;entryX=0;entryY=0.5;entryDx=0;entryDy=0;exitX=1;exitY=0.5;exitDx=0;exitDy=0;" parent="1" source="humndak8_3n1T79xHsqS-56" target="humndak8_3n1T79xHsqS-44" edge="1">
          <mxGeometry relative="1" as="geometry">
            <mxPoint x="790" y="344.5" as="sourcePoint" />
            <mxPoint x="950" y="344.5" as="targetPoint" />
            <Array as="points">
              <mxPoint x="810" y="345" />
            </Array>
          </mxGeometry>
        </mxCell>
        <mxCell id="humndak8_3n1T79xHsqS-58" value="&lt;b&gt;&lt;font style=&quot;font-size: 14px;&quot;&gt;N&lt;/font&gt;&lt;/b&gt;" style="resizable=0;html=1;whiteSpace=wrap;align=right;verticalAlign=bottom;" parent="humndak8_3n1T79xHsqS-57" connectable="0" vertex="1">
          <mxGeometry x="1" relative="1" as="geometry">
            <mxPoint x="-10" as="offset" />
          </mxGeometry>
        </mxCell>
        <mxCell id="humndak8_3n1T79xHsqS-61" value="" style="endArrow=none;html=1;rounded=0;entryX=0.5;entryY=0;entryDx=0;entryDy=0;exitX=0.5;exitY=1;exitDx=0;exitDy=0;" parent="1" source="humndak8_3n1T79xHsqS-71" target="humndak8_3n1T79xHsqS-67" edge="1">
          <mxGeometry width="50" height="50" relative="1" as="geometry">
            <mxPoint x="259.03999999999996" y="720" as="sourcePoint" />
            <mxPoint x="170" y="675" as="targetPoint" />
          </mxGeometry>
        </mxCell>
        <mxCell id="humndak8_3n1T79xHsqS-62" value="" style="endArrow=none;html=1;rounded=0;entryX=0.75;entryY=1;entryDx=0;entryDy=0;exitX=0.5;exitY=0;exitDx=0;exitDy=0;" parent="1" source="humndak8_3n1T79xHsqS-68" target="humndak8_3n1T79xHsqS-71" edge="1">
          <mxGeometry width="50" height="50" relative="1" as="geometry">
            <mxPoint x="298.0799999999999" y="720" as="sourcePoint" />
            <mxPoint x="260" y="635" as="targetPoint" />
          </mxGeometry>
        </mxCell>
        <mxCell id="humndak8_3n1T79xHsqS-64" value="" style="endArrow=none;html=1;rounded=0;entryX=0.571;entryY=0.073;entryDx=0;entryDy=0;entryPerimeter=0;exitX=0.163;exitY=0.972;exitDx=0;exitDy=0;exitPerimeter=0;" parent="1" source="humndak8_3n1T79xHsqS-71" target="humndak8_3n1T79xHsqS-66" edge="1">
          <mxGeometry width="50" height="50" relative="1" as="geometry">
            <mxPoint x="290" y="810" as="sourcePoint" />
            <mxPoint x="404" y="637.5" as="targetPoint" />
            <Array as="points" />
          </mxGeometry>
        </mxCell>
        <mxCell id="humndak8_3n1T79xHsqS-66" value="&lt;font style=&quot;font-size: 18px;&quot;&gt;number&lt;/font&gt;" style="ellipse;whiteSpace=wrap;html=1;align=center;fontStyle=4;" parent="1" vertex="1">
          <mxGeometry x="160" y="830" width="130" height="40" as="geometry" />
        </mxCell>
        <mxCell id="humndak8_3n1T79xHsqS-67" value="&lt;font style=&quot;font-size: 18px;&quot;&gt;Name&lt;/font&gt;" style="ellipse;whiteSpace=wrap;html=1;align=center;" parent="1" vertex="1">
          <mxGeometry x="260" y="870" width="110" height="40" as="geometry" />
        </mxCell>
        <mxCell id="humndak8_3n1T79xHsqS-68" value="&lt;font style=&quot;font-size: 18px;&quot;&gt;Address&lt;/font&gt;" style="ellipse;whiteSpace=wrap;html=1;align=center;" parent="1" vertex="1">
          <mxGeometry x="340" y="830" width="100" height="40" as="geometry" />
        </mxCell>
        <mxCell id="humndak8_3n1T79xHsqS-71" value="&lt;b&gt;&lt;font style=&quot;font-size: 20px;&quot;&gt;Nurse&lt;/font&gt;&lt;/b&gt;" style="whiteSpace=wrap;html=1;align=center;" parent="1" vertex="1">
          <mxGeometry x="230" y="720" width="190" height="50" as="geometry" />
        </mxCell>
        <mxCell id="humndak8_3n1T79xHsqS-74" value="&lt;b&gt;&lt;font style=&quot;font-size: 18px;&quot;&gt;Serve&lt;/font&gt;&lt;/b&gt;" style="shape=rhombus;perimeter=rhombusPerimeter;whiteSpace=wrap;html=1;align=center;" parent="1" vertex="1">
          <mxGeometry x="340" y="520" width="120" height="60" as="geometry" />
        </mxCell>
        <mxCell id="humndak8_3n1T79xHsqS-77" value="" style="shape=link;html=1;rounded=0;exitX=0.5;exitY=1;exitDx=0;exitDy=0;entryX=0.75;entryY=0;entryDx=0;entryDy=0;" parent="1" source="humndak8_3n1T79xHsqS-74" target="humndak8_3n1T79xHsqS-71" edge="1">
          <mxGeometry relative="1" as="geometry">
            <mxPoint x="290" y="560" as="sourcePoint" />
            <mxPoint x="450" y="560" as="targetPoint" />
          </mxGeometry>
        </mxCell>
        <mxCell id="humndak8_3n1T79xHsqS-78" value="&lt;b&gt;&lt;font style=&quot;font-size: 14px;&quot;&gt;N&lt;/font&gt;&lt;/b&gt;" style="resizable=0;html=1;whiteSpace=wrap;align=right;verticalAlign=bottom;" parent="humndak8_3n1T79xHsqS-77" connectable="0" vertex="1">
          <mxGeometry x="1" relative="1" as="geometry">
            <mxPoint x="18" as="offset" />
          </mxGeometry>
        </mxCell>
        <mxCell id="humndak8_3n1T79xHsqS-81" value="" style="endArrow=none;html=1;rounded=0;entryX=0.571;entryY=0.073;entryDx=0;entryDy=0;entryPerimeter=0;exitX=0.345;exitY=1.02;exitDx=0;exitDy=0;exitPerimeter=0;" parent="1" source="humndak8_3n1T79xHsqS-85" target="humndak8_3n1T79xHsqS-82" edge="1">
          <mxGeometry width="50" height="50" relative="1" as="geometry">
            <mxPoint x="1158.75" y="810" as="sourcePoint" />
            <mxPoint x="1272.75" y="637.5" as="targetPoint" />
            <Array as="points" />
          </mxGeometry>
        </mxCell>
        <mxCell id="humndak8_3n1T79xHsqS-82" value="&lt;font style=&quot;font-size: 18px;&quot;&gt;Consultant_id&lt;/font&gt;" style="ellipse;whiteSpace=wrap;html=1;align=center;fontStyle=4;" parent="1" vertex="1">
          <mxGeometry x="1040" y="840" width="150" height="40" as="geometry" />
        </mxCell>
        <mxCell id="humndak8_3n1T79xHsqS-85" value="&lt;b&gt;&lt;font style=&quot;font-size: 20px;&quot;&gt;Consultant&lt;/font&gt;&lt;/b&gt;" style="whiteSpace=wrap;html=1;align=center;" parent="1" vertex="1">
          <mxGeometry x="1098.75" y="720" width="190" height="50" as="geometry" />
        </mxCell>
        <mxCell id="humndak8_3n1T79xHsqS-88" value="&lt;font style=&quot;font-size: 18px;&quot;&gt;Name&lt;/font&gt;" style="ellipse;whiteSpace=wrap;html=1;align=center;" parent="1" vertex="1">
          <mxGeometry x="1219" y="840" width="112.5" height="40" as="geometry" />
        </mxCell>
        <mxCell id="humndak8_3n1T79xHsqS-93" value="" style="endArrow=none;html=1;rounded=0;exitX=0.5;exitY=0;exitDx=0;exitDy=0;entryX=0.695;entryY=1.006;entryDx=0;entryDy=0;entryPerimeter=0;" parent="1" source="humndak8_3n1T79xHsqS-88" target="humndak8_3n1T79xHsqS-85" edge="1">
          <mxGeometry relative="1" as="geometry">
            <mxPoint x="1140" y="740" as="sourcePoint" />
            <mxPoint x="1300" y="740" as="targetPoint" />
          </mxGeometry>
        </mxCell>
        <mxCell id="humndak8_3n1T79xHsqS-94" value="&lt;b&gt;&lt;font style=&quot;font-size: 18px;&quot;&gt;Gives&lt;/font&gt;&lt;/b&gt;" style="shape=rhombus;perimeter=rhombusPerimeter;whiteSpace=wrap;html=1;align=center;" parent="1" vertex="1">
          <mxGeometry x="660" y="715" width="120" height="60" as="geometry" />
        </mxCell>
        <mxCell id="humndak8_3n1T79xHsqS-95" value="" style="endArrow=none;html=1;rounded=0;exitX=1;exitY=0.5;exitDx=0;exitDy=0;entryX=0;entryY=0.5;entryDx=0;entryDy=0;" parent="1" source="humndak8_3n1T79xHsqS-71" target="humndak8_3n1T79xHsqS-94" edge="1">
          <mxGeometry relative="1" as="geometry">
            <mxPoint x="610" y="740" as="sourcePoint" />
            <mxPoint x="770" y="740" as="targetPoint" />
          </mxGeometry>
        </mxCell>
        <mxCell id="humndak8_3n1T79xHsqS-96" value="&lt;b style=&quot;font-size: 14px;&quot;&gt;K&lt;/b&gt;" style="resizable=0;html=1;whiteSpace=wrap;align=left;verticalAlign=bottom;" parent="humndak8_3n1T79xHsqS-95" connectable="0" vertex="1">
          <mxGeometry x="-1" relative="1" as="geometry">
            <mxPoint x="5" as="offset" />
          </mxGeometry>
        </mxCell>
        <mxCell id="humndak8_3n1T79xHsqS-99" value="" style="endArrow=none;html=1;rounded=0;entryX=0.079;entryY=1.027;entryDx=0;entryDy=0;entryPerimeter=0;" parent="1" target="humndak8_3n1T79xHsqS-44" edge="1">
          <mxGeometry relative="1" as="geometry">
            <mxPoint x="780" y="744.52" as="sourcePoint" />
            <mxPoint x="940" y="744.52" as="targetPoint" />
          </mxGeometry>
        </mxCell>
        <mxCell id="humndak8_3n1T79xHsqS-100" value="&lt;b style=&quot;font-size: 14px;&quot;&gt;M&lt;/b&gt;" style="resizable=0;html=1;whiteSpace=wrap;align=right;verticalAlign=bottom;" parent="humndak8_3n1T79xHsqS-99" connectable="0" vertex="1">
          <mxGeometry x="1" relative="1" as="geometry">
            <mxPoint x="-16" y="19" as="offset" />
          </mxGeometry>
        </mxCell>
        <mxCell id="humndak8_3n1T79xHsqS-102" value="&lt;font style=&quot;font-size: 18px;&quot;&gt;Date&lt;/font&gt;" style="ellipse;whiteSpace=wrap;html=1;align=center;" parent="1" vertex="1">
          <mxGeometry x="600" y="640" width="100" height="40" as="geometry" />
        </mxCell>
        <mxCell id="humndak8_3n1T79xHsqS-103" value="&lt;font style=&quot;font-size: 18px;&quot;&gt;Time&lt;/font&gt;" style="ellipse;whiteSpace=wrap;html=1;align=center;" parent="1" vertex="1">
          <mxGeometry x="670" y="600" width="100" height="40" as="geometry" />
        </mxCell>
        <mxCell id="humndak8_3n1T79xHsqS-104" value="&lt;font style=&quot;font-size: 18px;&quot;&gt;Dosage&lt;/font&gt;" style="ellipse;whiteSpace=wrap;html=1;align=center;" parent="1" vertex="1">
          <mxGeometry x="730" y="640" width="110" height="40" as="geometry" />
        </mxCell>
        <mxCell id="humndak8_3n1T79xHsqS-107" value="" style="endArrow=none;html=1;rounded=0;exitX=0.5;exitY=1;exitDx=0;exitDy=0;entryX=0;entryY=0;entryDx=0;entryDy=0;" parent="1" source="humndak8_3n1T79xHsqS-102" target="humndak8_3n1T79xHsqS-94" edge="1">
          <mxGeometry relative="1" as="geometry">
            <mxPoint x="610" y="740" as="sourcePoint" />
            <mxPoint x="770" y="740" as="targetPoint" />
          </mxGeometry>
        </mxCell>
        <mxCell id="humndak8_3n1T79xHsqS-108" value="" style="endArrow=none;html=1;rounded=0;exitX=0.5;exitY=1;exitDx=0;exitDy=0;entryX=0.5;entryY=0;entryDx=0;entryDy=0;" parent="1" source="humndak8_3n1T79xHsqS-103" target="humndak8_3n1T79xHsqS-94" edge="1">
          <mxGeometry relative="1" as="geometry">
            <mxPoint x="610" y="740" as="sourcePoint" />
            <mxPoint x="770" y="740" as="targetPoint" />
          </mxGeometry>
        </mxCell>
        <mxCell id="humndak8_3n1T79xHsqS-109" value="" style="endArrow=none;html=1;rounded=0;entryX=1;entryY=0;entryDx=0;entryDy=0;exitX=0.5;exitY=1;exitDx=0;exitDy=0;" parent="1" source="humndak8_3n1T79xHsqS-104" target="humndak8_3n1T79xHsqS-94" edge="1">
          <mxGeometry relative="1" as="geometry">
            <mxPoint x="610" y="740" as="sourcePoint" />
            <mxPoint x="750" y="740" as="targetPoint" />
          </mxGeometry>
        </mxCell>
        <mxCell id="1n8pQrtTzbXZI0dGJZr5-10" value="" style="endArrow=none;html=1;rounded=0;entryX=0.712;entryY=0.113;entryDx=0;entryDy=0;exitX=0.25;exitY=1;exitDx=0;exitDy=0;entryPerimeter=0;" edge="1" parent="1" source="1n8pQrtTzbXZI0dGJZr5-14" target="1n8pQrtTzbXZI0dGJZr5-13">
          <mxGeometry width="50" height="50" relative="1" as="geometry">
            <mxPoint x="654.04" y="840" as="sourcePoint" />
            <mxPoint x="565" y="795" as="targetPoint" />
          </mxGeometry>
        </mxCell>
        <mxCell id="1n8pQrtTzbXZI0dGJZr5-11" value="" style="endArrow=none;html=1;rounded=0;exitX=0.75;exitY=1;exitDx=0;exitDy=0;entryX=0.351;entryY=0.087;entryDx=0;entryDy=0;entryPerimeter=0;" edge="1" parent="1" target="1n8pQrtTzbXZI0dGJZr5-12" source="1n8pQrtTzbXZI0dGJZr5-14">
          <mxGeometry width="50" height="50" relative="1" as="geometry">
            <mxPoint x="755" y="840" as="sourcePoint" />
            <mxPoint x="799" y="757.5" as="targetPoint" />
          </mxGeometry>
        </mxCell>
        <mxCell id="1n8pQrtTzbXZI0dGJZr5-12" value="&lt;font style=&quot;font-size: 18px;&quot;&gt;Code_number&lt;/font&gt;" style="ellipse;whiteSpace=wrap;html=1;align=center;fontStyle=4;" vertex="1" parent="1">
          <mxGeometry x="750" y="950" width="155" height="40" as="geometry" />
        </mxCell>
        <mxCell id="1n8pQrtTzbXZI0dGJZr5-13" value="&lt;font style=&quot;font-size: 18px;&quot;&gt;RecommendedDosage&lt;/font&gt;" style="ellipse;whiteSpace=wrap;html=1;align=center;" vertex="1" parent="1">
          <mxGeometry x="475" y="950" width="235" height="40" as="geometry" />
        </mxCell>
        <mxCell id="1n8pQrtTzbXZI0dGJZr5-14" value="&lt;b&gt;&lt;font style=&quot;font-size: 20px;&quot;&gt;Drug&lt;/font&gt;&lt;/b&gt;" style="whiteSpace=wrap;html=1;align=center;" vertex="1" parent="1">
          <mxGeometry x="625" y="840" width="190" height="50" as="geometry" />
        </mxCell>
        <mxCell id="1n8pQrtTzbXZI0dGJZr5-18" value="&lt;font style=&quot;font-size: 18px;&quot;&gt;BrandName&lt;/font&gt;" style="ellipse;shape=doubleEllipse;margin=3;whiteSpace=wrap;html=1;align=center;" vertex="1" parent="1">
          <mxGeometry x="640" y="990" width="160" height="40" as="geometry" />
        </mxCell>
        <mxCell id="1n8pQrtTzbXZI0dGJZr5-19" value="" style="endArrow=none;html=1;rounded=0;entryX=0.5;entryY=0;entryDx=0;entryDy=0;" edge="1" parent="1" target="1n8pQrtTzbXZI0dGJZr5-18">
          <mxGeometry width="50" height="50" relative="1" as="geometry">
            <mxPoint x="720" y="890" as="sourcePoint" />
            <mxPoint x="635" y="809" as="targetPoint" />
          </mxGeometry>
        </mxCell>
        <mxCell id="1n8pQrtTzbXZI0dGJZr5-20" value="" style="endArrow=none;html=1;rounded=0;exitX=0.75;exitY=1;exitDx=0;exitDy=0;entryX=0.5;entryY=0;entryDx=0;entryDy=0;" edge="1" parent="1" source="humndak8_3n1T79xHsqS-33" target="humndak8_3n1T79xHsqS-74">
          <mxGeometry relative="1" as="geometry">
            <mxPoint x="340" y="420" as="sourcePoint" />
            <mxPoint x="580" y="420" as="targetPoint" />
          </mxGeometry>
        </mxCell>
        <mxCell id="1n8pQrtTzbXZI0dGJZr5-21" value="&lt;b&gt;&lt;font style=&quot;font-size: 14px;&quot;&gt;1&lt;/font&gt;&lt;/b&gt;" style="resizable=0;html=1;whiteSpace=wrap;align=left;verticalAlign=bottom;" connectable="0" vertex="1" parent="1n8pQrtTzbXZI0dGJZr5-20">
          <mxGeometry x="-1" relative="1" as="geometry">
            <mxPoint x="8" y="20" as="offset" />
          </mxGeometry>
        </mxCell>
        <mxCell id="1n8pQrtTzbXZI0dGJZr5-22" value="&lt;div style=&quot;font-size: 17px;&quot;&gt;&lt;font style=&quot;font-size: 17px;&quot;&gt;&lt;b&gt;&lt;font style=&quot;font-size: 17px;&quot;&gt;Supervises&lt;/font&gt;&lt;/b&gt;&lt;/font&gt;&lt;/div&gt;" style="shape=rhombus;perimeter=rhombusPerimeter;whiteSpace=wrap;html=1;align=center;" vertex="1" parent="1">
          <mxGeometry x="200" y="520" width="120" height="60" as="geometry" />
        </mxCell>
        <mxCell id="1n8pQrtTzbXZI0dGJZr5-24" value="" style="shape=link;html=1;rounded=0;exitX=0.5;exitY=0;exitDx=0;exitDy=0;entryX=0.298;entryY=1.027;entryDx=0;entryDy=0;entryPerimeter=0;" edge="1" parent="1" source="1n8pQrtTzbXZI0dGJZr5-22" target="humndak8_3n1T79xHsqS-33">
          <mxGeometry relative="1" as="geometry">
            <mxPoint x="10" y="480" as="sourcePoint" />
            <mxPoint x="220" y="480" as="targetPoint" />
          </mxGeometry>
        </mxCell>
        <mxCell id="1n8pQrtTzbXZI0dGJZr5-25" value="&lt;b&gt;&lt;font style=&quot;font-size: 14px;&quot;&gt;1&lt;/font&gt;&lt;/b&gt;" style="resizable=0;html=1;whiteSpace=wrap;align=right;verticalAlign=bottom;" connectable="0" vertex="1" parent="1n8pQrtTzbXZI0dGJZr5-24">
          <mxGeometry x="1" relative="1" as="geometry">
            <mxPoint x="-5" y="18" as="offset" />
          </mxGeometry>
        </mxCell>
        <mxCell id="1n8pQrtTzbXZI0dGJZr5-26" value="" style="endArrow=none;html=1;rounded=0;exitX=0.25;exitY=0;exitDx=0;exitDy=0;entryX=0.5;entryY=1;entryDx=0;entryDy=0;" edge="1" parent="1" source="humndak8_3n1T79xHsqS-71" target="1n8pQrtTzbXZI0dGJZr5-22">
          <mxGeometry relative="1" as="geometry">
            <mxPoint x="383" y="380" as="sourcePoint" />
            <mxPoint x="410" y="530" as="targetPoint" />
          </mxGeometry>
        </mxCell>
        <mxCell id="1n8pQrtTzbXZI0dGJZr5-27" value="&lt;b&gt;&lt;font style=&quot;font-size: 14px;&quot;&gt;1&lt;/font&gt;&lt;/b&gt;" style="resizable=0;html=1;whiteSpace=wrap;align=left;verticalAlign=bottom;" connectable="0" vertex="1" parent="1n8pQrtTzbXZI0dGJZr5-26">
          <mxGeometry x="-1" relative="1" as="geometry">
            <mxPoint x="-17" as="offset" />
          </mxGeometry>
        </mxCell>
        <mxCell id="1n8pQrtTzbXZI0dGJZr5-28" value="" style="endArrow=none;html=1;rounded=0;exitX=1;exitY=0.5;exitDx=0;exitDy=0;entryX=0;entryY=0.5;entryDx=0;entryDy=0;" edge="1" parent="1" source="humndak8_3n1T79xHsqS-33" target="humndak8_3n1T79xHsqS-56">
          <mxGeometry relative="1" as="geometry">
            <mxPoint x="383" y="380" as="sourcePoint" />
            <mxPoint x="410" y="530" as="targetPoint" />
          </mxGeometry>
        </mxCell>
        <mxCell id="1n8pQrtTzbXZI0dGJZr5-29" value="&lt;b&gt;&lt;font style=&quot;font-size: 14px;&quot;&gt;1&lt;/font&gt;&lt;/b&gt;" style="resizable=0;html=1;whiteSpace=wrap;align=left;verticalAlign=bottom;" connectable="0" vertex="1" parent="1n8pQrtTzbXZI0dGJZr5-28">
          <mxGeometry x="-1" relative="1" as="geometry">
            <mxPoint x="5" as="offset" />
          </mxGeometry>
        </mxCell>
        <mxCell id="1n8pQrtTzbXZI0dGJZr5-30" value="&lt;b&gt;&lt;font style=&quot;font-size: 18px;&quot;&gt;Examine&lt;/font&gt;&lt;/b&gt;" style="shape=rhombus;perimeter=rhombusPerimeter;whiteSpace=wrap;html=1;align=center;" vertex="1" parent="1">
          <mxGeometry x="1050" y="510" width="120" height="60" as="geometry" />
        </mxCell>
        <mxCell id="1n8pQrtTzbXZI0dGJZr5-33" value="" style="endArrow=none;html=1;rounded=0;exitX=0.309;exitY=0.973;exitDx=0;exitDy=0;entryX=0.5;entryY=0;entryDx=0;entryDy=0;exitPerimeter=0;" edge="1" parent="1">
          <mxGeometry relative="1" as="geometry">
            <mxPoint x="1158.7100000000005" y="370" as="sourcePoint" />
            <mxPoint x="1110" y="511.35" as="targetPoint" />
          </mxGeometry>
        </mxCell>
        <mxCell id="1n8pQrtTzbXZI0dGJZr5-34" value="&lt;b style=&quot;font-size: 14px;&quot;&gt;M&lt;/b&gt;" style="resizable=0;html=1;whiteSpace=wrap;align=left;verticalAlign=bottom;" connectable="0" vertex="1" parent="1n8pQrtTzbXZI0dGJZr5-33">
          <mxGeometry x="-1" relative="1" as="geometry">
            <mxPoint x="-39" y="350" as="offset" />
          </mxGeometry>
        </mxCell>
        <mxCell id="1n8pQrtTzbXZI0dGJZr5-35" value="&lt;div style=&quot;font-size: 17px;&quot;&gt;&lt;font style=&quot;font-size: 17px;&quot;&gt;&lt;b&gt;&lt;font style=&quot;font-size: 17px;&quot;&gt;Assign&lt;/font&gt;&lt;/b&gt;&lt;/font&gt;&lt;/div&gt;" style="shape=rhombus;perimeter=rhombusPerimeter;whiteSpace=wrap;html=1;align=center;" vertex="1" parent="1">
          <mxGeometry x="1240" y="504.5" width="120" height="60" as="geometry" />
        </mxCell>
        <mxCell id="1n8pQrtTzbXZI0dGJZr5-36" value="" style="shape=link;html=1;rounded=0;exitX=0.5;exitY=0;exitDx=0;exitDy=0;entryX=0.75;entryY=1;entryDx=0;entryDy=0;" edge="1" parent="1" source="1n8pQrtTzbXZI0dGJZr5-35" target="humndak8_3n1T79xHsqS-44">
          <mxGeometry relative="1" as="geometry">
            <mxPoint x="1050" y="464.5" as="sourcePoint" />
            <mxPoint x="1327" y="355.5" as="targetPoint" />
          </mxGeometry>
        </mxCell>
        <mxCell id="1n8pQrtTzbXZI0dGJZr5-37" value="&lt;b style=&quot;font-size: 14px;&quot;&gt;N&lt;/b&gt;" style="resizable=0;html=1;whiteSpace=wrap;align=right;verticalAlign=bottom;" connectable="0" vertex="1" parent="1n8pQrtTzbXZI0dGJZr5-36">
          <mxGeometry x="1" relative="1" as="geometry">
            <mxPoint x="33" y="20" as="offset" />
          </mxGeometry>
        </mxCell>
        <mxCell id="1n8pQrtTzbXZI0dGJZr5-38" value="" style="endArrow=none;html=1;rounded=0;exitX=0.75;exitY=0;exitDx=0;exitDy=0;entryX=0.5;entryY=1;entryDx=0;entryDy=0;" edge="1" parent="1" target="1n8pQrtTzbXZI0dGJZr5-35" source="humndak8_3n1T79xHsqS-85">
          <mxGeometry relative="1" as="geometry">
            <mxPoint x="1318" y="704.5" as="sourcePoint" />
            <mxPoint x="1450" y="514.5" as="targetPoint" />
          </mxGeometry>
        </mxCell>
        <mxCell id="1n8pQrtTzbXZI0dGJZr5-39" value="&lt;b&gt;&lt;font style=&quot;font-size: 14px;&quot;&gt;1&lt;/font&gt;&lt;/b&gt;" style="resizable=0;html=1;whiteSpace=wrap;align=left;verticalAlign=bottom;" connectable="0" vertex="1" parent="1n8pQrtTzbXZI0dGJZr5-38">
          <mxGeometry x="-1" relative="1" as="geometry">
            <mxPoint x="19" as="offset" />
          </mxGeometry>
        </mxCell>
        <mxCell id="1n8pQrtTzbXZI0dGJZr5-40" value="" style="endArrow=none;html=1;rounded=0;exitX=0.25;exitY=0;exitDx=0;exitDy=0;entryX=0.5;entryY=1;entryDx=0;entryDy=0;" edge="1" parent="1" source="humndak8_3n1T79xHsqS-85" target="1n8pQrtTzbXZI0dGJZr5-30">
          <mxGeometry relative="1" as="geometry">
            <mxPoint x="1168.7100000000005" y="380" as="sourcePoint" />
            <mxPoint x="1120" y="521.35" as="targetPoint" />
          </mxGeometry>
        </mxCell>
        <mxCell id="1n8pQrtTzbXZI0dGJZr5-42" value="&lt;font size=&quot;1&quot;&gt;&lt;b style=&quot;font-size: 14px;&quot;&gt;N&lt;/b&gt;&lt;/font&gt;" style="resizable=0;html=1;whiteSpace=wrap;align=right;verticalAlign=bottom;" connectable="0" vertex="1" parent="1">
          <mxGeometry x="1149.9953246925645" y="389.99888993304165" as="geometry" />
        </mxCell>
        <mxCell id="1n8pQrtTzbXZI0dGJZr5-43" value="" style="endArrow=none;html=1;rounded=0;exitX=0.5;exitY=0;exitDx=0;exitDy=0;entryX=0.5;entryY=1;entryDx=0;entryDy=0;" edge="1" parent="1" source="1n8pQrtTzbXZI0dGJZr5-14" target="humndak8_3n1T79xHsqS-94">
          <mxGeometry relative="1" as="geometry">
            <mxPoint x="430" y="755" as="sourcePoint" />
            <mxPoint x="670" y="755" as="targetPoint" />
          </mxGeometry>
        </mxCell>
        <mxCell id="1n8pQrtTzbXZI0dGJZr5-44" value="&lt;b style=&quot;font-size: 14px;&quot;&gt;N&lt;/b&gt;" style="resizable=0;html=1;whiteSpace=wrap;align=left;verticalAlign=bottom;" connectable="0" vertex="1" parent="1n8pQrtTzbXZI0dGJZr5-43">
          <mxGeometry x="-1" relative="1" as="geometry">
            <mxPoint x="5" as="offset" />
          </mxGeometry>
        </mxCell>
      </root>
    </mxGraphModel>
  </diagram>
</mxfile>
